<svg class="hidden" width="33" height="32" viewBox="0 0 33 32" fill="none">
    <symbol id="typography" width="24" height="24" viewBox="0 0 24 24" fill="none" xmlns="http://www.w3.org/2000/svg">
        <path d="M3.00002 6.2V5H14V6.2M8.00002 5.00002V19M5.00002 19H11M13 12.2V11H21V12.2M17 11L17 19M15.5 19H18.5" stroke="#383838" stroke-width="2" stroke-linecap="round" stroke-linejoin="round"/>
    </symbol>
    <symbol id="banner" width="24" height="24" viewBox="0 0 24 24" fill="none" xmlns="http://www.w3.org/2000/svg">
        <path d="M5 7H19M5 12H19M5 17H19" stroke="#383838" stroke-width="2" stroke-linecap="round"/>
    </symbol>
    <symbol id="assets" width="24" height="24" viewBox="0 0 24 24" fill="none" xmlns="http://www.w3.org/2000/svg">
        <path fill-rule="evenodd" clip-rule="evenodd" d="M13 10C13 9.44772 13.4477 9 14 9H14.01C14.5623 9 15.01 9.44772 15.01 10C15.01 10.5523 14.5623 11 14.01 11H14C13.4477 11 13 10.5523 13 10Z" fill="#383838"/>
        <path fill-rule="evenodd" clip-rule="evenodd" d="M2 6C2 4.89543 2.89543 4 4 4H20C21.1046 4 22 4.89543 22 6V18C22 18.5561 21.7731 19.0591 21.4068 19.4216C21.3579 19.5267 21.2907 19.6236 21.2071 19.7071C21.0196 19.8946 20.7652 20 20.5 20L4 20C3.86193 20 3.72713 19.986 3.59693 19.9594C2.79951 19.7962 2.17496 19.1584 2.03125 18.3541C2.01072 18.2392 2 18.1208 2 18V6ZM8.89188 18L12.7246 12.644L8.7348 8.32172C8.53068 8.10059 8.23781 7.98314 7.93746 8.00196C7.6371 8.02078 7.36119 8.17387 7.18627 8.41876L4 12.8795V6L20 6V15.9496L16.7433 12.331C16.5405 12.1057 16.2464 11.9845 15.9437 12.0016C15.6411 12.0186 15.3625 12.1721 15.1863 12.4188L11.1997 18H8.89188Z" fill="#383838"/>
    </symbol>
    <symbol id="content_editor" width="24" height="24" viewBox="0 0 24 24" fill="none" xmlns="http://www.w3.org/2000/svg">
        <path d="M3 2L4.5777 19.8238L12.001 22L19.4678 19.8248L21 2H3ZM17.0488 8.04778H9.07522L9.24744 10.0637H16.9439L16.3184 16.6286L12.0723 18.0105L7.7905 16.555L7.50346 13.6228H9.52656L9.68789 15.034L12.0871 15.8494L14.4329 15.0864L14.7298 12.0806H7.41636L6.85417 6.03185H17.2656L17.0488 8.04778Z" fill="#2F3039"/>
    </symbol>
    <symbol id="collections" width="24" height="24" viewBox="0 0 24 24" fill="none" xmlns="http://www.w3.org/2000/svg">
        <path d="M9 8H19M9 12H19M9 16H19M4.99 8H5M4.98 12H4.99M4.99001 16H5.00001" stroke="#383838" stroke-width="2" stroke-linecap="round"/>
    </symbol>
    <symbol id="form" width="24" height="24" viewBox="0 0 24 24" fill="none" xmlns="http://www.w3.org/2000/svg">
        <path d="M15.9067 11.9979L10.3321 9.23071C10.278 9.22319 10.2247 9.21076 10.1729 9.19359L10.1537 9.18692V15.7408C10.1537 15.7579 10.1624 15.7751 10.1643 15.7922L12.5518 12.8175L15.9067 11.9979Z" fill="#2F2F38"/>
        <path d="M11.4635 4.05425L17.0419 7.37735C17.6788 7.7707 18.1923 8.3328 18.5247 9.00033C18.8571 9.66785 18.9951 10.4143 18.9231 11.1555C18.8465 11.767 18.5869 12.3417 18.1779 12.8053C17.7689 13.2689 17.2292 13.6001 16.6287 13.7561C16.6057 13.7627 16.5826 13.7608 16.5587 13.7665C16.4963 13.7966 16.4322 13.8233 16.3669 13.8465L13.6467 14.5128L11.6553 16.9935C11.4753 17.2195 11.2457 17.4018 10.9841 17.5266C11.032 17.5608 11.0704 17.6037 11.1221 17.6341C11.4237 17.8091 11.7655 17.9042 12.1147 17.9103C12.4639 17.9165 12.8089 17.8335 13.1165 17.6694C13.7091 17.3381 15.2662 16.468 17.7534 14.7775L18.0324 14.5871C19.3613 13.6923 21.6491 12.1454 22 10.372C21.7541 8.87599 21.1682 7.4552 20.2867 6.21753C19.4052 4.97985 18.2512 3.95783 16.9124 3.22903C15.5736 2.50023 14.0851 2.08382 12.56 2.0114C11.0349 1.93897 9.51324 2.21245 8.11048 2.81106C9.27195 3.09811 10.3968 3.51518 11.4635 4.05425Z" fill="#2F2F38"/>
        <path d="M5.38167 17.082V10.6253C5.3831 10.0101 5.53807 9.4048 5.83272 8.8636C6.12737 8.32241 6.55252 7.86214 7.07016 7.52394C7.58521 7.22484 8.1626 7.04723 8.75776 7.00481C9.35292 6.9624 9.94994 7.05631 10.5027 7.2793C10.6789 7.30883 10.85 7.36299 11.0109 7.44018L16.7639 10.2959C16.8465 10.3452 16.9254 10.4006 16.9997 10.4615C16.9522 10.1662 16.8429 9.88414 16.6787 9.63343C16.5145 9.38273 16.2992 9.169 16.0467 9.00606L10.5373 5.72199C8.797 4.86527 6.63102 4.19894 5.29346 4.62539C4.2144 5.59657 3.36133 6.7894 2.79355 8.12096C2.22576 9.45253 1.95689 10.8909 2.00562 12.336C2.05434 13.7812 2.4195 15.1985 3.0757 16.4894C3.73191 17.7802 4.66341 18.9138 5.80547 19.8111C5.59109 18.9141 5.44937 18.0015 5.38167 17.082Z" fill="#2F2F38"/>
        <path d="M19.1015 16.1634L18.8301 16.3462C16.2729 18.0853 14.6612 18.9858 14.1319 19.2809C13.5227 19.6258 12.834 19.8081 12.1327 19.8102C11.4354 19.8104 10.7507 19.626 10.1489 19.2762C9.58504 18.9462 9.11653 18.4772 8.78879 17.9147C8.46106 17.3522 8.28521 16.7152 8.27828 16.0654C8.25793 15.9799 8.24383 15.893 8.23609 15.8055V9.14218C8.23609 9.11839 8.24472 9.09554 8.24568 9.07174C8.19026 9.0919 8.13614 9.11542 8.08364 9.14218C7.8361 9.31007 7.6346 9.53653 7.49733 9.80111C7.36006 10.0657 7.29135 10.3601 7.2974 10.6576V17.0354C7.36633 18.5199 7.74508 19.974 8.40964 21.3056C9.77984 21.8417 11.252 22.0721 12.7219 21.9804C14.1918 21.8886 15.6233 21.4771 16.9151 20.7748C18.2069 20.0726 19.3273 19.0969 20.197 17.9169C21.0666 16.7368 21.6641 15.3813 21.9473 13.9464C21.0694 14.7708 20.1168 15.5129 19.1015 16.1634Z" fill="#2F2F38"/>
    </symbol>
    <symbol id="breadcrumb" width="24" height="24" viewBox="0 0 24 24" fill="none" xmlns="http://www.w3.org/2000/svg">
        <path d="M6 6H18M6 18H18M13 10H18M13 14H18M6 9V15L9.5 12L6 9Z" stroke="#383838" stroke-width="2" stroke-linecap="round" stroke-linejoin="round"/>
    </symbol> 

    <symbol id="chevron-right" width="24" height="24" viewBox="0 0 24 24" fill="none" xmlns="http://www.w3.org/2000/svg">
        <path d="M10 16L14 12L10 8" stroke="#929292" stroke-width="2" stroke-linecap="round" stroke-linejoin="round"/>
    </symbol>
</svg>