<svg class="hidden">
    <symbol id="typography" viewBox="0 0 24 24" fill="none" xmlns="http://www.w3.org/2000/svg">
        <path d="M3.00002 6.2V5H14V6.2M8.00002 5.00002V19M5.00002 19H11M13 12.2V11H21V12.2M17 11L17 19M15.5 19H18.5" stroke="#383838" stroke-width="2" stroke-linecap="round" stroke-linejoin="round"/>
    </symbol>
    <symbol id="banner" viewBox="0 0 24 24" fill="none" xmlns="http://www.w3.org/2000/svg">
        <path d="M5 7H19M5 12H19M5 17H19" stroke="#383838" stroke-width="2" stroke-linecap="round"/>
    </symbol>
    <symbol id="assets" viewBox="0 0 24 24" fill="none" xmlns="http://www.w3.org/2000/svg">
        <path fill-rule="evenodd" clip-rule="evenodd" d="M13 10C13 9.44772 13.4477 9 14 9H14.01C14.5623 9 15.01 9.44772 15.01 10C15.01 10.5523 14.5623 11 14.01 11H14C13.4477 11 13 10.5523 13 10Z" fill="#383838"/>
        <path fill-rule="evenodd" clip-rule="evenodd" d="M2 6C2 4.89543 2.89543 4 4 4H20C21.1046 4 22 4.89543 22 6V18C22 18.5561 21.7731 19.0591 21.4068 19.4216C21.3579 19.5267 21.2907 19.6236 21.2071 19.7071C21.0196 19.8946 20.7652 20 20.5 20L4 20C3.86193 20 3.72713 19.986 3.59693 19.9594C2.79951 19.7962 2.17496 19.1584 2.03125 18.3541C2.01072 18.2392 2 18.1208 2 18V6ZM8.89188 18L12.7246 12.644L8.7348 8.32172C8.53068 8.10059 8.23781 7.98314 7.93746 8.00196C7.6371 8.02078 7.36119 8.17387 7.18627 8.41876L4 12.8795V6L20 6V15.9496L16.7433 12.331C16.5405 12.1057 16.2464 11.9845 15.9437 12.0016C15.6411 12.0186 15.3625 12.1721 15.1863 12.4188L11.1997 18H8.89188Z" fill="#383838"/>
    </symbol>
    <symbol id="content_editor" viewBox="0 0 24 24" fill="none" xmlns="http://www.w3.org/2000/svg">
        <path d="M3 2L4.5777 19.8238L12.001 22L19.4678 19.8248L21 2H3ZM17.0488 8.04778H9.07522L9.24744 10.0637H16.9439L16.3184 16.6286L12.0723 18.0105L7.7905 16.555L7.50346 13.6228H9.52656L9.68789 15.034L12.0871 15.8494L14.4329 15.0864L14.7298 12.0806H7.41636L6.85417 6.03185H17.2656L17.0488 8.04778Z" fill="#2F3039"/>
    </symbol>
    <symbol id="collections" viewBox="0 0 24 24" fill="none" xmlns="http://www.w3.org/2000/svg">
        <path d="M9 8H19M9 12H19M9 16H19M4.99 8H5M4.98 12H4.99M4.99001 16H5.00001" stroke="#383838" stroke-width="2" stroke-linecap="round"/>
    </symbol>
    <symbol id="form" viewBox="0 0 24 24" fill="none" xmlns="http://www.w3.org/2000/svg">
        <path d="M15.9067 11.9979L10.3321 9.23071C10.278 9.22319 10.2247 9.21076 10.1729 9.19359L10.1537 9.18692V15.7408C10.1537 15.7579 10.1624 15.7751 10.1643 15.7922L12.5518 12.8175L15.9067 11.9979Z" fill="#2F2F38"/>
        <path d="M11.4635 4.05425L17.0419 7.37735C17.6788 7.7707 18.1923 8.3328 18.5247 9.00033C18.8571 9.66785 18.9951 10.4143 18.9231 11.1555C18.8465 11.767 18.5869 12.3417 18.1779 12.8053C17.7689 13.2689 17.2292 13.6001 16.6287 13.7561C16.6057 13.7627 16.5826 13.7608 16.5587 13.7665C16.4963 13.7966 16.4322 13.8233 16.3669 13.8465L13.6467 14.5128L11.6553 16.9935C11.4753 17.2195 11.2457 17.4018 10.9841 17.5266C11.032 17.5608 11.0704 17.6037 11.1221 17.6341C11.4237 17.8091 11.7655 17.9042 12.1147 17.9103C12.4639 17.9165 12.8089 17.8335 13.1165 17.6694C13.7091 17.3381 15.2662 16.468 17.7534 14.7775L18.0324 14.5871C19.3613 13.6923 21.6491 12.1454 22 10.372C21.7541 8.87599 21.1682 7.4552 20.2867 6.21753C19.4052 4.97985 18.2512 3.95783 16.9124 3.22903C15.5736 2.50023 14.0851 2.08382 12.56 2.0114C11.0349 1.93897 9.51324 2.21245 8.11048 2.81106C9.27195 3.09811 10.3968 3.51518 11.4635 4.05425Z" fill="#2F2F38"/>
        <path d="M5.38167 17.082V10.6253C5.3831 10.0101 5.53807 9.4048 5.83272 8.8636C6.12737 8.32241 6.55252 7.86214 7.07016 7.52394C7.58521 7.22484 8.1626 7.04723 8.75776 7.00481C9.35292 6.9624 9.94994 7.05631 10.5027 7.2793C10.6789 7.30883 10.85 7.36299 11.0109 7.44018L16.7639 10.2959C16.8465 10.3452 16.9254 10.4006 16.9997 10.4615C16.9522 10.1662 16.8429 9.88414 16.6787 9.63343C16.5145 9.38273 16.2992 9.169 16.0467 9.00606L10.5373 5.72199C8.797 4.86527 6.63102 4.19894 5.29346 4.62539C4.2144 5.59657 3.36133 6.7894 2.79355 8.12096C2.22576 9.45253 1.95689 10.8909 2.00562 12.336C2.05434 13.7812 2.4195 15.1985 3.0757 16.4894C3.73191 17.7802 4.66341 18.9138 5.80547 19.8111C5.59109 18.9141 5.44937 18.0015 5.38167 17.082Z" fill="#2F2F38"/>
        <path d="M19.1015 16.1634L18.8301 16.3462C16.2729 18.0853 14.6612 18.9858 14.1319 19.2809C13.5227 19.6258 12.834 19.8081 12.1327 19.8102C11.4354 19.8104 10.7507 19.626 10.1489 19.2762C9.58504 18.9462 9.11653 18.4772 8.78879 17.9147C8.46106 17.3522 8.28521 16.7152 8.27828 16.0654C8.25793 15.9799 8.24383 15.893 8.23609 15.8055V9.14218C8.23609 9.11839 8.24472 9.09554 8.24568 9.07174C8.19026 9.0919 8.13614 9.11542 8.08364 9.14218C7.8361 9.31007 7.6346 9.53653 7.49733 9.80111C7.36006 10.0657 7.29135 10.3601 7.2974 10.6576V17.0354C7.36633 18.5199 7.74508 19.974 8.40964 21.3056C9.77984 21.8417 11.252 22.0721 12.7219 21.9804C14.1918 21.8886 15.6233 21.4771 16.9151 20.7748C18.2069 20.0726 19.3273 19.0969 20.197 17.9169C21.0666 16.7368 21.6641 15.3813 21.9473 13.9464C21.0694 14.7708 20.1168 15.5129 19.1015 16.1634Z" fill="#2F2F38"/>
    </symbol>
    <symbol id="breadcrumb" viewBox="0 0 24 24" fill="none" xmlns="http://www.w3.org/2000/svg">
        <path d="M6 6H18M6 18H18M13 10H18M13 14H18M6 9V15L9.5 12L6 9Z" stroke="#383838" stroke-width="2" stroke-linecap="round" stroke-linejoin="round"/>
    </symbol> 

    <symbol id="chevron-right" viewBox="0 0 24 24" fill="none" xmlns="http://www.w3.org/2000/svg">
        <path d="M10 16L14 12L10 8" stroke="#929292" stroke-width="2" stroke-linecap="round" stroke-linejoin="round"/>
    </symbol>


    <svg id="drag-drop-ic" viewBox="0 0 13 13" fill="none" xmlns="http://www.w3.org/2000/svg"> 
        <path d="M2.9 3.72852H1.52426L1.61213 3.81638C1.72929 3.93354 1.72929 4.12349 1.61213 4.24065C1.49497 4.35781 1.30503 4.35781 1.18787 4.24065L0.587868 3.64065C0.470711 3.52349 0.470711 3.33354 0.587868 3.21638L1.18787 2.61638C1.30503 2.49923 1.49497 2.49923 1.61213 2.61638C1.72929 2.73354 1.72929 2.92349 1.61213 3.04065L1.52426 3.12852H2.9V1.75278L2.81213 1.84065C2.69497 1.9578 2.50503 1.9578 2.38787 1.84065C2.27071 1.72349 2.27071 1.53354 2.38787 1.41638L2.98787 0.816384C3.10503 0.699226 3.29497 0.699226 3.41213 0.816384L4.01213 1.41638C4.12929 1.53354 4.12929 1.72349 4.01213 1.84065C3.89497 1.9578 3.70503 1.9578 3.58787 1.84065L3.5 1.75278V3.12852H4.87574L4.78787 3.04065C4.67071 2.92349 4.67071 2.73354 4.78787 2.61638C4.90503 2.49923 5.09497 2.49923 5.21213 2.61638L5.81213 3.21638C5.92929 3.33354 5.92929 3.52349 5.81213 3.64065L5.21213 4.24065C5.09497 4.35781 4.90503 4.35781 4.78787 4.24065C4.67071 4.12349 4.67071 3.93354 4.78787 3.81638L4.87574 3.72852H3.5V5.10425L3.58787 5.01638C3.70503 4.89923 3.89497 4.89923 4.01213 5.01638C4.12929 5.13354 4.12929 5.32349 4.01213 5.44065L3.41213 6.04065C3.29497 6.15781 3.10503 6.15781 2.98787 6.04065L2.38787 5.44065C2.27071 5.32349 2.27071 5.13354 2.38787 5.01638C2.50503 4.89923 2.69497 4.89923 2.81213 5.01638L2.9 5.10425V3.72852ZM7.7 5.22852V6.75698C7.7 6.95552 7.63039 7.14779 7.50329 7.30031C7.20321 7.66041 6.66804 7.70906 6.30794 7.40898L5.75364 6.94707C5.58419 6.80585 5.37058 6.72852 5.15 6.72852C4.99018 6.72852 4.8445 6.82008 4.77519 6.9641L4.75377 7.00861C4.67269 7.1771 4.69725 7.37741 4.81664 7.52133L7.46472 10.7134C7.89307 11.2297 8.52911 11.5285 9.2 11.5285C10.6912 11.5285 11.9 10.3197 11.9 8.82852V6.42852C11.9 6.26283 11.7657 6.12852 11.6 6.12852C11.4343 6.12852 11.3 6.26283 11.3 6.42852V7.02852C11.3 7.1942 11.1657 7.32852 11 7.32852C10.8343 7.32852 10.7 7.1942 10.7 7.02852V5.82852C10.7 5.66283 10.5657 5.52852 10.4 5.52852C10.2343 5.52852 10.1 5.66283 10.1 5.82852V7.02852C10.1 7.1942 9.96569 7.32852 9.8 7.32852C9.63431 7.32852 9.5 7.1942 9.5 7.02852V5.22852C9.5 5.06283 9.36569 4.92852 9.2 4.92852C9.03432 4.92852 8.9 5.06283 8.9 5.22852V7.02852C8.9 7.1942 8.76569 7.32852 8.6 7.32852C8.43431 7.32852 8.3 7.1942 8.3 7.02852V2.82852C8.3 2.66283 8.16569 2.52852 8 2.52852C7.83431 2.52852 7.7 2.66283 7.7 2.82852V5.22852ZM7.1 5.22852V2.82852C7.1 2.33146 7.50294 1.92852 8 1.92852C8.49706 1.92852 8.9 2.33146 8.9 2.82852V4.37973C8.99383 4.34656 9.09481 4.32852 9.2 4.32852C9.61504 4.32852 9.96446 4.60946 10.0685 4.99154C10.1711 4.95087 10.2829 4.92852 10.4 4.92852C10.815 4.92852 11.1645 5.20946 11.2685 5.59154C11.3711 5.55087 11.4829 5.52852 11.6 5.52852C12.0971 5.52852 12.5 5.93146 12.5 6.42852V8.82852C12.5 10.6511 11.0225 12.1285 9.2 12.1285C8.35058 12.1285 7.54527 11.7502 7.00293 11.0965L4.35485 7.90441C4.08567 7.57993 4.0303 7.12833 4.21312 6.74843L4.23454 6.70392C4.40381 6.35217 4.75964 6.12852 5.15 6.12852C5.51095 6.12852 5.86047 6.25506 6.13776 6.48613L6.69206 6.94805C6.79758 7.03599 6.95441 7.02173 7.04235 6.9162C7.0796 6.87151 7.1 6.81516 7.1 6.75698V5.22852Z" fill="black"/>
    </svg>
    <svg id="gear-green" viewBox="0 0 13 14" fill="none" xmlns="http://www.w3.org/2000/svg">
        <path d="M12.5 8.09526V6.76192C12.5 6.58511 12.4298 6.41554 12.3047 6.29052C12.1797 6.16549 12.0101 6.09526 11.8333 6.09526H11.3287L10.8573 4.95726L11.214 4.59992C11.339 4.4749 11.4092 4.30537 11.4092 4.12859C11.4092 3.95181 11.339 3.78227 11.214 3.65726L10.2713 2.71459C10.1463 2.58961 9.97678 2.5194 9.8 2.5194C9.62323 2.5194 9.45369 2.58961 9.32867 2.71459L8.97133 3.07126L7.83333 2.59992V2.09526C7.83333 1.91844 7.7631 1.74888 7.63807 1.62385C7.51305 1.49883 7.34348 1.42859 7.16667 1.42859H5.83333C5.65652 1.42859 5.48695 1.49883 5.36193 1.62385C5.2369 1.74888 5.16667 1.91844 5.16667 2.09526V2.59992L4.02867 3.07126L3.67133 2.71459C3.54631 2.58961 3.37678 2.5194 3.2 2.5194C3.02322 2.5194 2.85369 2.58961 2.72867 2.71459L1.786 3.65726C1.66102 3.78227 1.59081 3.95181 1.59081 4.12859C1.59081 4.30537 1.66102 4.4749 1.786 4.59992L2.14333 4.95726L1.67133 6.09526H1.16667C0.989856 6.09526 0.820286 6.16549 0.695262 6.29052C0.570238 6.41554 0.5 6.58511 0.5 6.76192V8.09526C0.5 8.27207 0.570238 8.44164 0.695262 8.56666C0.820286 8.69168 0.989856 8.76192 1.16667 8.76192H1.67133L2.14267 9.89992L1.786 10.2573C1.66102 10.3823 1.59081 10.5518 1.59081 10.7286C1.59081 10.9054 1.66102 11.0749 1.786 11.1999L2.72867 12.1426C2.85369 12.2676 3.02322 12.3378 3.2 12.3378C3.37678 12.3378 3.54631 12.2676 3.67133 12.1426L4.02867 11.7859L5.16667 12.2573V12.7619C5.16667 12.9387 5.2369 13.1083 5.36193 13.2333C5.48695 13.3584 5.65652 13.4286 5.83333 13.4286H7.16667C7.34348 13.4286 7.51305 13.3584 7.63807 13.2333C7.7631 13.1083 7.83333 12.9387 7.83333 12.7619V12.2573L8.97133 11.7853L9.32867 12.1426C9.45369 12.2676 9.62323 12.3378 9.8 12.3378C9.97678 12.3378 10.1463 12.2676 10.2713 12.1426L11.214 11.1999C11.339 11.0749 11.4092 10.9054 11.4092 10.7286C11.4092 10.5518 11.339 10.3823 11.214 10.2573L10.8573 9.89992L11.3287 8.76192H11.8333C12.0101 8.76192 12.1797 8.69168 12.3047 8.56666C12.4298 8.44164 12.5 8.27207 12.5 8.09526Z" stroke="#057803" stroke-linecap="round" stroke-linejoin="round"/>
        <path d="M6.5 9.42859C7.60457 9.42859 8.5 8.53316 8.5 7.42859C8.5 6.32402 7.60457 5.42859 6.5 5.42859C5.39543 5.42859 4.5 6.32402 4.5 7.42859C4.5 8.53316 5.39543 9.42859 6.5 9.42859Z" stroke="#057803" stroke-linecap="round" stroke-linejoin="round"/>
    </svg>
    <svg id="trash-red" viewBox="0 0 11 15" fill="none" xmlns="http://www.w3.org/2000/svg">
        <path d="M0.5 3.85714H10.5M4.07143 6V11.7143M6.92857 6V11.7143M4.07143 1H6.92857C7.11801 1 7.29969 1.07525 7.43365 1.20921C7.5676 1.34316 7.64286 1.52485 7.64286 1.71429V3.85714H3.35714V1.71429C3.35714 1.52485 3.4324 1.34316 3.56635 1.20921C3.70031 1.07525 3.88199 1 4.07143 1ZM1.21429 3.85714H9.78571V13.1429C9.78571 13.3323 9.71046 13.514 9.57651 13.6479C9.44255 13.7819 9.26087 13.8571 9.07143 13.8571H1.92857C1.73913 13.8571 1.55745 13.7819 1.4235 13.6479C1.28954 13.514 1.21429 13.3323 1.21429 13.1429V3.85714Z" stroke="#FF4F4F" stroke-linecap="round" stroke-linejoin="round"/>
    </svg>

</svg>